{"title":"Muppets.Most.Wanted.2014.HDRiP.x264.AC-3 5.1-PLAYNOW","uid":10501547,"size":1535042536,"categoryP":"video","categoryS":"movies","magnet":"?xt=urn:btih:a5f6e45a02a322be86fdf721c1e596111f51cd15&amp;dn=Muppets.Most.Wanted.2014.HDRiP.x264.AC-3+5.1-PLAYNOW&amp;tr=udp%3A%2F%2Ftracker.openbittorrent.com%3A80&amp;tr=udp%3A%2F%2Fopen.demonii.com%3A1337&amp;tr=udp%3A%2F%2Ftracker.coppersurfer.tk%3A6969&amp;tr=udp%3A%2F%2Fexodus.desync.com%3A6969","seeders":38,"leechers":0,"uploader":"Acesn8s","files":-1,"time":1404707726,"description":"Cover:\n &lt;a href=&quot;\nhttp://aciai.me/i/9KmVn.jpg&quot; rel=&quot;nofollow&quot; target=&quot;_NEW&quot;&gt;\nhttp://aciai.me/i/9KmVn.jpg&lt;/a&gt;\n\n**********************************************************************************\n\nMuppets.Most.Wanted.2014.HDRiP.x264.AC-3.5.1-PLAYNOW\n\n**********************************************************************************\n\nGeneral Information:\n\nFormat : Matroska\nFormat version : Version 2\nFile size : 1.43 GiB\nDuration : 1h 47mn\nOverall bit rate : 1 906 Kbps\nEncoded date : UTC 2014-07-06 23:39:22\nWriting application : mkvmerge v7.0.0 ('Where We Going') 32bit built on Jun 9 2014 15:08:34\nWriting library : libebml v1.3.0 + libmatroska v1.4.1\n\n**********************************************************************************\n\nVideo\n\nID : 1\nFormat : AVC\nFormat/Info : Advanced Video Codec\nFormat profile : &lt;a class=&quot;__cf_email__&quot; href=&quot;/cdn-cgi/l/email-protection&quot; data-cfemail=&quot;3971505e5179750d1708&quot;&gt;[email&amp;#160;protected]&lt;/a&gt;&lt;script cf-hash='f9e31' type=&quot;text/javascript&quot;&gt;\n/* &lt;![CDATA[ */!function(){try{var t=&quot;currentScript&quot;in document?document.currentScript:function(){for(var t=document.getElementsByTagName(&quot;script&quot;),e=t.length;e--;)if(t[e].getAttribute(&quot;cf-hash&quot;))return t[e]}();if(t&amp;&amp;t.previousSibling){var e,r,n,i,c=t.previousSibling,a=c.getAttribute(&quot;data-cfemail&quot;);if(a){for(e=&quot;&quot;,r=parseInt(a.substr(0,2),16),n=2;a.length-n;n+=2)i=parseInt(a.substr(n,2),16)^r,e+=String.fromCharCode(i);e=document.createTextNode(e),c.parentNode.replaceChild(e,c)}}}catch(u){}}();/* ]]&gt; */&lt;/script&gt;\nFormat settings, CABAC : Yes\nFormat settings, ReFrames : 4 frames\nCodec ID : V_MPEG4/ISO/AVC\nDuration : 1h 47mn\nBit rate : 1 522 Kbps\nWidth : 720 pixels\nHeight : 404 pixels\nDisplay aspect ratio : 16:9\nFrame rate : 23.976 fps\nColor space : YUV\nChroma subsampling : 4:2:0\nBit depth : 8 bits\nScan type : Progressive\nBits/(Pixel*Frame) : 0.218\nStream size : 1.11 GiB (78%)\nWriting library : x264 core 142 r2431 ac76440\nDefault : Yes\nForced : No\n\n**********************************************************************************\n\nAudio\n\nID : 2\nFormat : AC-3\nFormat/Info : Audio Coding 3\nMode extension : CM (complete main)\nCodec ID : A_AC3\nDuration : 1h 47mn\nBit rate mode : Constant\nBit rate : 384 Kbps\nChannel(s) : 6 channels\nChannel positions : Front: L C R, Side: L R, LFE\nSampling rate : 48.0 KHz\nBit depth : 16 bits\nCompression mode : Lossy\nStream size : 295 MiB (20%)\nLanguage : English\nDefault : Yes\nForced : No\n\n**********************************************************************************\n\nSubs:\n\nText\nID : 3\nFormat : UTF-8\nCodec ID : S_TEXT/UTF8\nCodec ID/Info : UTF-8 Plain Text\nLanguage : English\nDefault : Yes\nForced : Yes\n\n**********************************************************************************\n\nIMDb Information:\n\nLink:\n &lt;a href=&quot;\nhttp://www.imdb.com/title/tt2281587/&quot; rel=&quot;nofollow&quot; target=&quot;_NEW&quot;&gt;\nhttp://www.imdb.com/title/tt2281587/&lt;/a&gt;\n\nRatings:\n\n6.9/10 from 7,813 users \n\nActors:\n\nRicky Gervais, Ty Burrell, Tina Fey \n\nPlot:\n\nWhile on a grand world tour, The Muppets find themselves wrapped into an European\njewel-heist caper headed by a Kermit the Frog look-alike and his dastardly sidekick.\n\n**********************************************************************************\n\nScreens:\n &lt;a href=&quot;\nhttp://i.imgur.com/2p8psUG.jpg&quot; rel=&quot;nofollow&quot; target=&quot;_NEW&quot;&gt;\nhttp://i.imgur.com/2p8psUG.jpg&lt;/a&gt;\n &lt;a href=&quot;\nhttp://i.imgur.com/S49T3eo.jpg&quot; rel=&quot;nofollow&quot; target=&quot;_NEW&quot;&gt;\nhttp://i.imgur.com/S49T3eo.jpg&lt;/a&gt;\n &lt;a href=&quot;\nhttp://i.imgur.com/zZ7y0vu.jpg&quot; rel=&quot;nofollow&quot; target=&quot;_NEW&quot;&gt;\nhttp://i.imgur.com/zZ7y0vu.jpg&lt;/a&gt;\n &lt;a href=&quot;\nhttp://i.imgur.com/W0wOkEb.jpg&quot; rel=&quot;nofollow&quot; target=&quot;_NEW&quot;&gt;\nhttp://i.imgur.com/W0wOkEb.jpg&lt;/a&gt;","torrent":{"xt":"urn:btih:a5f6e45a02a322be86fdf721c1e596111f51cd15","amp;dn":"Muppets.Most.Wanted.2014.HDRiP.x264.AC-3+5.1-PLAYNOW","amp;tr":["udp%3A%2F%2Ftracker.openbittorrent.com%3A80","udp%3A%2F%2Fopen.demonii.com%3A1337","udp%3A%2F%2Ftracker.coppersurfer.tk%3A6969","udp%3A%2F%2Fexodus.desync.com%3A6969"],"infoHash":"a5f6e45a02a322be86fdf721c1e596111f51cd15","infoHashBuffer":{"type":"Buffer","data":[165,246,228,90,2,163,34,190,134,253,247,33,193,229,150,17,31,81,205,21]},"announce":[],"urlList":[]}}